<?xml version="1.0" standalone="no"?>
<!DOCTYPE svg PUBLIC "-//W3C//DTD SVG 20010904//EN"
 "http://www.w3.org/TR/2001/REC-SVG-20010904/DTD/svg10.dtd">
<svg version="1.0" xmlns="http://www.w3.org/2000/svg"
 width="128.000000pt" height="128.000000pt" viewBox="0 0 128.000000 128.000000"
 preserveAspectRatio="xMidYMid meet">

<g transform="translate(0.000000,128.000000) scale(0.100000,-0.100000)"
fill="#000000" stroke="none">
<path d="M1025 1185 c-104 -37 -135 -177 -56 -255 l27 -28 -50 -177 -51 -178
-58 -19 -58 -19 -92 77 -92 77 -1 52 c-1 69 -27 114 -84 143 -56 28 -84 28
-140 0 -81 -42 -109 -142 -62 -222 l22 -37 -55 -108 c-53 -106 -55 -109 -93
-116 -58 -9 -101 -40 -122 -88 -25 -53 -25 -81 0 -134 33 -75 117 -108 195
-78 104 39 133 166 59 254 l-25 30 53 105 c48 98 54 104 78 100 14 -3 45 2 70
11 25 9 50 17 56 18 7 1 52 -31 102 -71 90 -74 90 -74 80 -108 -30 -110 83
-218 194 -185 113 34 152 179 69 261 l-27 28 50 177 51 178 55 18 c30 10 65
29 77 44 63 72 44 198 -35 239 -44 23 -94 27 -137 11z m109 -86 c35 -28 36
-80 1 -114 -30 -31 -73 -32 -109 -4 -56 44 -20 139 54 139 15 0 39 -9 54 -21z
m-640 -320 c35 -28 36 -80 1 -114 -30 -31 -73 -32 -109 -4 -56 44 -20 139 54
139 15 0 39 -9 54 -21z m440 -340 c35 -28 36 -80 1 -114 -30 -31 -73 -32 -109
-4 -56 44 -20 139 54 139 15 0 39 -9 54 -21z m-680 -160 c35 -28 36 -80 1
-114 -30 -31 -73 -32 -109 -4 -56 44 -20 139 54 139 15 0 39 -9 54 -21z"/>
</g>
</svg>
